<?xml version="1.0" encoding="utf-8"?>
<!-- Generator: Adobe Illustrator 18.0.0, SVG Export Plug-In . SVG Version: 6.00 Build 0)  -->
<!DOCTYPE svg PUBLIC "-//W3C//DTD SVG 1.1//EN" "http://www.w3.org/Graphics/SVG/1.1/DTD/svg11.dtd">
<svg version="1.1" id="레이어_1" xmlns="http://www.w3.org/2000/svg" xmlns:xlink="http://www.w3.org/1999/xlink" x="0px"
	 y="0px" viewBox="0 0 512 402.3" enable-background="new 0 0 512 402.3" xml:space="preserve">
<path fill="#54342A" d="M487,50H25C11.2,50,0,38.8,0,25v0C0,11.2,11.2,0,25,0l462,0c13.8,0,25,11.2,25,25v0
	C512,38.8,500.8,50,487,50z"/>
<path fill="#54342A" d="M487,226.1H25c-13.8,0-25-11.2-25-25v0c0-13.8,11.2-25,25-25h462c13.8,0,25,11.2,25,25v0
	C512,214.9,500.8,226.1,487,226.1z"/>
<path fill="#54342A" d="M487,402.3H25c-13.8,0-25-11.2-25-25v0c0-13.8,11.2-25,25-25h462c13.8,0,25,11.2,25,25v0
	C512,391.1,500.8,402.3,487,402.3z"/>
</svg>
